<svg id="Layer_1" data-name="Layer 1" xmlns="http://www.w3.org/2000/svg" viewBox="0 0 800 252.08"><defs><style>.cls-1{fill:#fff;}.cls-2{fill:none;stroke:#fff;stroke-miterlimit:10;}</style></defs><title>LogoSLight</title><path class="cls-1" d="M23.81,23.23H91.86c56.32,0,95.33,39.31,95.33,100.9,0,61.3-38.13,104.42-95.62,104.42H23.81ZM39.65,213.89H89.22c54.26,0,80.95-38.14,80.95-88.88,0-45.17-24-87.11-80.95-87.11H39.65Z"/><path class="cls-1" d="M431.53,23.23H503.1c39.31,0,60.43,20.83,60.43,50.45,0,24.35-14.67,40.19-31.68,44.88,14.66,4.1,39,18.48,39,50.74,0,41.07-30.8,59.25-66.58,59.25H431.53Zm66.29,88.29c35.5,0,49-13.2,49-37,0-20.24-14.08-36.66-42.83-36.66h-56.9v73.62ZM447.08,213.89h57.78c27,0,49.57-13.5,49.57-43.71,0-26.1-16.72-44-58.07-44H447.08Z"/><path class="cls-1" d="M617.8,228.55V23.23h23.46c32,49.28,107.07,164,120,186.26h.29c-1.76-29.63-1.46-59.84-1.46-93.28v-93h16.13V228.55H754.48C724,181,647.72,61.66,633.05,39.07h-.29c1.46,27,1.17,56.9,1.17,94.16v95.32Z"/><polygon class="cls-1" points="329.31 207.18 313.06 124.22 298.81 127.7 317.38 186.29 329.31 207.18"/><circle class="cls-1" cx="306.23" cy="125.89" r="13.29"/><path class="cls-1" d="M353.57,200.34a88,88,0,1,1-.45-148.6l13.08-8.85a102.66,102.66,0,1,0,.43,166.29Z"/><circle class="cls-1" cx="279.48" cy="66.36" r="7.08"/><circle class="cls-1" cx="364.88" cy="74.06" r="7.08"/><circle class="cls-1" cx="235.43" cy="127.34" r="7.08"/><circle class="cls-1" cx="278.02" cy="146.96" r="7.08"/><circle class="cls-2" cx="306.23" cy="125.89" r="30.04"/><circle class="cls-2" cx="306.23" cy="125.89" r="51.06"/><circle class="cls-2" cx="306.23" cy="125.89" r="72.05"/></svg>