<svg id="Layer_1" data-name="Layer 1" xmlns="http://www.w3.org/2000/svg" viewBox="0 0 800 400"><defs><style>.cls-1{fill:#fff;}.cls-2,.cls-3{fill:none;stroke:#fff;stroke-miterlimit:10;}.cls-3{stroke-width:2px;}</style></defs><title>LogoLight</title><path class="cls-1" d="M23.81,28.25H91.86c56.32,0,95.33,39.3,95.33,100.9,0,61.3-38.13,104.42-95.62,104.42H23.81ZM39.65,218.9H89.22c54.26,0,80.95-38.13,80.95-88.87,0-45.17-24-87.11-80.95-87.11H39.65Z"/><path class="cls-1" d="M431.53,28.25H503.1c39.31,0,60.43,20.83,60.43,50.45,0,24.35-14.67,40.18-31.68,44.88,14.66,4.1,39,18.48,39,50.74,0,41.06-30.8,59.25-66.58,59.25H431.53Zm66.29,88.29c35.5,0,49-13.2,49-37,0-20.24-14.08-36.66-42.83-36.66h-56.9v73.62ZM447.08,218.9h57.78c27,0,49.57-13.49,49.57-43.7,0-26.1-16.72-44-58.07-44H447.08Z"/><path class="cls-1" d="M617.8,233.57V28.25h23.46c32,49.28,107.07,164,120,186.25h.29c-1.76-29.62-1.46-59.83-1.46-93.27v-93h16.13V233.57H754.48C724,186.05,647.72,66.68,633.05,44.09h-.29c1.46,27,1.17,56.9,1.17,94.15v95.33Z"/><polygon class="cls-1" points="329.31 212.19 313.06 129.24 298.81 132.72 317.38 191.31 329.31 212.19"/><circle class="cls-1" cx="306.23" cy="130.91" r="13.29"/><path class="cls-1" d="M353.57,205.36a88,88,0,1,1-.45-148.6l13.08-8.85a102.66,102.66,0,1,0,.43,166.29Z"/><circle class="cls-1" cx="279.48" cy="71.38" r="7.08"/><circle class="cls-1" cx="364.88" cy="79.08" r="7.08"/><circle class="cls-1" cx="235.43" cy="132.36" r="7.08"/><circle class="cls-1" cx="278.02" cy="151.98" r="7.08"/><circle class="cls-2" cx="306.23" cy="130.91" r="30.04"/><circle class="cls-2" cx="306.23" cy="130.91" r="51.06"/><circle class="cls-2" cx="306.23" cy="130.91" r="72.05"/><path class="cls-1" d="M136.73,280h18.54c14.57,0,24.43,9.93,24.43,25.4s-9.61,26.46-24.67,26.46h-18.3Zm6.88,46h10.88c12.21,0,18-8.74,18-20.47,0-10.24-5.29-19.71-18-19.71H143.61Z"/><path class="cls-1" d="M209.1,280H229c11,0,16.07,5.77,16.07,13,0,6-3.46,9.95-7.44,11.3a12.81,12.81,0,0,1,9.15,12.42c0,9.77-7.46,15.19-17.29,15.19H209.1Zm18.59,21.56c7.51,0,10.44-3,10.44-8,0-4.59-3.29-7.87-9.38-7.87h-12.9v15.88ZM215.85,326.2h12.81c6.51,0,11-3.06,11-9.53,0-5.63-3.62-9.41-12.36-9.41H215.85Z"/><path class="cls-1" d="M276,331.88V280h9.1c7.44,12.12,23.62,37.92,26.53,43.55h.1c-.5-6.65-.45-14.83-.45-23.3V280h6.5v51.86h-8.55c-6.86-11.26-23.73-39-27-44.83h-.1c.37,5.91.38,14.7.38,24.06v20.77Z"/><path class="cls-1" d="M420.13,307.63H394.34V326h28.33l-.89,5.89H387.6V280h33.77v5.89h-27v15.83h25.79Z"/><path class="cls-1" d="M480.77,277.16v44c0,3.55,0,7,.07,10.68h-6.27c-.18-1-.3-3.9-.33-5.37-1.86,3.94-5.69,6.26-11.89,6.26-9.71,0-15.69-7.87-15.69-19.4s6.44-20.18,16.9-20.18c6.69,0,9.67,2.7,10.68,4.82V277.16Zm-27.33,36c0,9.13,4.34,14.06,10.28,14.06,8.83,0,10.78-6.51,10.78-14.8s-1.76-13.71-10.27-13.71C457.56,298.72,453.44,304,453.44,313.17Z"/><path class="cls-1" d="M510.52,277.16H517v8.15h-6.52Zm0,16.92H517v37.8h-6.52Z"/><path class="cls-1" d="M542.34,294.08h6.53V282.93h6.53v11.15h8.34v5.33H555.4v22.13c0,3.68.89,5.56,4.31,5.56a14.73,14.73,0,0,0,3.29-.31v4.91a17.54,17.54,0,0,1-5.65.7c-5.87,0-8.48-3-8.48-9.33V299.41h-6.53Z"/><path class="cls-1" d="M648.69,304.35c0-5.29,0-8.26-.07-10.27H655c.1,1.06.2,4,.2,7.71,2-5.11,6.48-8.41,12.73-8.6v6.5c-7.75.23-12.73,4.28-12.73,13.84v18.35h-6.53Z"/><circle class="cls-1" cx="603.97" cy="312.53" r="19.34"/><circle class="cls-1" cx="620.56" cy="263.58" r="13.54"/><circle class="cls-1" cx="565.28" cy="367.94" r="13.54"/><circle class="cls-1" cx="637.14" cy="355.46" r="13.54"/><line class="cls-3" x1="603.97" y1="312.53" x2="620.56" y2="263.58"/><line class="cls-3" x1="637.14" y1="355.46" x2="603.97" y2="312.53"/><line class="cls-3" x1="565.28" y1="367.94" x2="603.97" y2="312.53"/></svg>