<svg xmlns="http://www.w3.org/2000/svg" xmlns:xlink="http://www.w3.org/1999/xlink" xmlns:lucid="lucid" width="952.5" height="780"><g transform="translate(-238.075 -200)" lucid:page-tab-id="0_0"><path d="M1139.75 499.75c0 10.9-8.84 19.75-19.75 19.75-10.9 0-19.75-8.84-19.75-19.75 0-10.9 8.84-19.75 19.75-19.75 10.9 0 19.75 8.84 19.75 19.75z" stroke="#000" stroke-width="2" fill="#fff"/><path d="M1120 519.5v50.3c0 2.76 1.2 6.9 2.67 9.22L1160 638m-40-63.2l-40 63.2m0-98.75h80" stroke="#000" stroke-width="2" fill="none"/><path d="M1080 485c0-2.76 2.24-5 5-5h70c2.76 0 5 2.24 5 5v170c0 2.76-2.24 5-5 5h-70c-2.76 0-5-2.24-5-5z" fill="none"/><use xlink:href="#a" transform="matrix(1,0,0,1,1000,638) translate(71.57499999999999 14.6)"/><path d="M319.75 699.75c0 10.9-8.84 19.75-19.75 19.75-10.9 0-19.75-8.84-19.75-19.75 0-10.9 8.84-19.75 19.75-19.75 10.9 0 19.75 8.84 19.75 19.75z" stroke="#000" stroke-width="2" fill="#fff"/><path d="M300 719.5v50.3c0 2.76 1.2 6.9 2.67 9.22L340 838m-40-63.2L260 838m0-98.75h80" stroke="#000" stroke-width="2" fill="none"/><path d="M260 685c0-2.76 2.24-5 5-5h70c2.76 0 5 2.24 5 5v170c0 2.76-2.24 5-5 5h-70c-2.76 0-5-2.24-5-5z" fill="none"/><use xlink:href="#b" transform="matrix(1,0,0,1,180,838) translate(79.07499999999999 14.6)"/><path d="M319.75 379.75c0 10.9-8.84 19.75-19.75 19.75-10.9 0-19.75-8.84-19.75-19.75 0-10.9 8.84-19.75 19.75-19.75 10.9 0 19.75 8.84 19.75 19.75z" stroke="#000" stroke-width="2" fill="#fff"/><path d="M300 399.5v50.3c0 2.76 1.2 6.9 2.67 9.22L340 518m-40-63.2L260 518m0-98.75h80" stroke="#000" stroke-width="2" fill="none"/><path d="M260 365c0-2.76 2.24-5 5-5h70c2.76 0 5 2.24 5 5v170c0 2.76-2.24 5-5 5h-70c-2.76 0-5-2.24-5-5z" fill="none"/><use xlink:href="#c" transform="matrix(1,0,0,1,180,518) translate(94.55 14.6)"/><path d="M380 225c0-2.76 2.24-5 5-5h630c2.76 0 5 2.24 5 5v730c0 2.76-2.24 5-5 5H385c-2.76 0-5-2.24-5-5z" stroke="#000" stroke-width="2" fill-opacity="0"/><use xlink:href="#d" transform="matrix(1,0,0,1,388,228) translate(275.725 15.6)"/><use xlink:href="#e" transform="matrix(1,0,0,1,388,228) translate(317.32500000000005 15.6)"/><path d="M920 850c0 27.6-40.3 50-90 50s-90-22.4-90-50 40.3-50 90-50 90 22.4 90 50z" stroke="#000" stroke-width="2" fill="#fff"/><use xlink:href="#f" transform="matrix(1,0,0,1,740,800) translate(22.630000000000003 55.025)"/><use xlink:href="#g" transform="matrix(1,0,0,1,740,800) translate(80.53000000000002 55.025)"/><path d="M740 710c0 27.6-40.3 50-90 50s-90-22.4-90-50 40.3-50 90-50 90 22.4 90 50z" stroke="#000" stroke-width="2" fill="#fff"/><use xlink:href="#h" transform="matrix(1,0,0,1,560,660) translate(49.55499999999999 55.025)"/><path d="M660 850c0 27.6-49.25 50-110 50s-110-22.4-110-50 49.25-50 110-50 110 22.4 110 50z" stroke="#000" stroke-width="2" fill="#fff"/><use xlink:href="#i" transform="matrix(1,0,0,1,440,800) translate(69.55499999999999 55.025)"/><path d="M780 570c0 27.6-44.77 50-100 50s-100-22.4-100-50 44.77-50 100-50 100 22.4 100 50z" stroke="#000" stroke-width="2" fill="#fff"/><use xlink:href="#j" transform="matrix(1,0,0,1,580,520) translate(28.08000000000001 42.525)"/><use xlink:href="#k" transform="matrix(1,0,0,1,580,520) translate(150.98000000000002 42.525)"/><use xlink:href="#l" transform="matrix(1,0,0,1,580,520) translate(47.03 64.125)"/><use xlink:href="#m" transform="matrix(1,0,0,1,580,520) translate(98.98 64.125)"/><path d="M1000 350c0 27.6-40.3 50-90 50s-90-22.4-90-50 40.3-50 90-50 90 22.4 90 50z" stroke="#000" stroke-width="2" fill="#fff"/><use xlink:href="#n" transform="matrix(1,0,0,1,820,300) translate(31.605 42.525)"/><use xlink:href="#m" transform="matrix(1,0,0,1,820,300) translate(63.004999999999995 64.125)"/><path d="M840 450c0 27.6-40.3 50-90 50s-90-22.4-90-50 40.3-50 90-50 90 22.4 90 50z" stroke="#000" stroke-width="2" fill="#fff"/><use xlink:href="#o" transform="matrix(1,0,0,1,660,400) translate(15.604999999999999 55.025)"/><use xlink:href="#m" transform="matrix(1,0,0,1,660,400) translate(110.40500000000002 55.025)"/><path d="M1120.08 570.35l-378.14 139.3M1120.06 570.35l3.77-1.4" stroke="#000" stroke-width="2" fill="none"/><path d="M742.3 710.58l-1.33.5.03-1.07v-.46l-.03-.6.65-.23z"/><path d="M1120.17 570.52L661.85 849.48M1120.14 570.53l3.44-2.1" stroke="#000" stroke-width="2" fill="none"/><path d="M662.4 850.32l-1.43.87v-.1l.03-1.1v-.62l-.03-.53.4-.24z"/><path d="M1120.23 570.62L830.8 798.38M1120.2 570.63l3.18-2.5" stroke="#000" stroke-width="2" fill="none"/><path d="M831.33 799.04L830 799h-1.63l1.82-1.42z"/><path d="M300.7 775.96l.5-.5M300.73 775.94l-2.85 2.85M301.2 775.48l2.83-2.84M301.88 770.5l136.25 79M301.9 770.5l-3.48-2" stroke="#000" stroke-width="2" fill="none"/><path d="M439.03 848.86v.04L439 850v.62l.03.56-1.42-.83 1-1.73z"/><path d="M302 769.77l256.03-59.54M302.02 769.77l-3.92.9" stroke="#000" stroke-width="2" fill="none"/><path d="M559 710v.46l.03.56-.8.2-.46-1.96 1.26-.3z"/><path d="M301.83 769.42L578.2 570.58M301.85 769.4l-3.27 2.35" stroke="#000" stroke-width="2" fill="none"/><path d="M579 570v.56l.04.65-.3.2-1.16-1.6 1.45-1.05z"/><path d="M301.6 450.8l147.37 206.6c2.25-1.6 5.37-1.1 6.98 1.16 1.6 2.25 1.08 5.37-1.17 6.97l39.14 54.86c2.25-1.6 5.37-1.1 6.97 1.16 1.6 2.25 1.07 5.37-1.17 6.97l49.7 69.66M301.62 450.83l-2.34-3.27" stroke="#000" stroke-width="2" fill="none"/><path d="M551.25 799.03L550 799l-1.22.02-.2-.27 1.64-1.17z"/><path d="M301.73 450.7L483.6 632.58c1.94-1.95 5.1-1.95 7.06 0 1.95 1.95 1.95 5.12 0 7.07l67.7 67.7M301.74 450.73l-2.84-2.85" stroke="#000" stroke-width="2" fill="none"/><path d="M559.18 706.75l-.14 1.62-.02 1.04-1.38-1.37 1.4-1.4z"/><path d="M301.94 450.4l276.14 119.2M301.96 450.4l-3.7-1.6" stroke="#000" stroke-width="2" fill="none"/><path d="M579.03 568.92L579 570v.56l.03.54-1.37-.6.8-1.82z"/><path d="M302.02 450H658M302.05 450h-4.03" stroke="#000" stroke-width="2" fill="none"/><path d="M659 450v.46l.03.54h-1.06v-2h1.06z"/><path d="M302 449.8l516.02-99.6M302.03 449.8l-3.96.77" stroke="#000" stroke-width="2" fill="none"/><path d="M819 350v.46l.03.55-.85.18-.38-1.97 1.23-.22z"/><defs><path d="M185-189c-5-48-123-54-124 2 14 75 158 14 163 119 3 78-121 87-175 55-17-10-28-26-33-46l33-7c5 56 141 63 141-1 0-78-155-14-162-118-5-82 145-84 179-34 5 7 8 16 11 25" id="p"/><path d="M84 4C-5 8 30-112 23-190h32v120c0 31 7 50 39 49 72-2 45-101 50-169h31l1 190h-30c-1-10 1-25-2-33-11 22-28 36-60 37" id="q"/><path d="M115-194c55 1 70 41 70 98S169 2 115 4C84 4 66-9 55-30l1 105H24l-1-265h31l2 30c10-21 28-34 59-34zm-8 174c40 0 45-34 45-75s-6-73-45-74c-42 0-51 32-51 76 0 43 10 73 51 73" id="r"/><path d="M100-194c63 0 86 42 84 106H49c0 40 14 67 53 68 26 1 43-12 49-29l28 8c-11 28-37 45-77 45C44 4 14-33 15-96c1-61 26-98 85-98zm52 81c6-60-76-77-97-28-3 7-6 17-6 28h103" id="s"/><path d="M114-163C36-179 61-72 57 0H25l-1-190h30c1 12-1 29 2 39 6-27 23-49 58-41v29" id="t"/><path d="M141-36C126-15 110 5 73 4 37 3 15-17 15-53c-1-64 63-63 125-63 3-35-9-54-41-54-24 1-41 7-42 31l-33-3c5-37 33-52 76-52 45 0 72 20 72 64v82c-1 20 7 32 28 27v20c-31 9-61-2-59-35zM48-53c0 20 12 33 32 33 41-3 63-29 60-74-43 2-92-5-92 41" id="u"/><path d="M85-194c31 0 48 13 60 33l-1-100h32l1 261h-30c-2-10 0-23-3-31C134-8 116 4 85 4 32 4 16-35 15-94c0-66 23-100 70-100zm9 24c-40 0-46 34-46 75 0 40 6 74 45 74 42 0 51-32 51-76 0-42-9-74-50-73" id="v"/><path d="M210-169c-67 3-38 105-44 169h-31v-121c0-29-5-50-35-48C34-165 62-65 56 0H25l-1-190h30c1 10-1 24 2 32 10-44 99-50 107 0 11-21 27-35 58-36 85-2 47 119 55 194h-31v-121c0-29-5-49-35-48" id="w"/><path d="M24-231v-30h32v30H24zM24 0v-190h32V0H24" id="x"/><path d="M117-194c89-4 53 116 60 194h-32v-121c0-31-8-49-39-48C34-167 62-67 57 0H25l-1-190h30c1 10-1 24 2 32 11-22 29-35 61-36" id="y"/><g id="a"><use transform="matrix(0.05,0,0,0.05,0,0)" xlink:href="#p"/><use transform="matrix(0.05,0,0,0.05,12,0)" xlink:href="#q"/><use transform="matrix(0.05,0,0,0.05,22,0)" xlink:href="#r"/><use transform="matrix(0.05,0,0,0.05,32,0)" xlink:href="#s"/><use transform="matrix(0.05,0,0,0.05,42,0)" xlink:href="#t"/><use transform="matrix(0.05,0,0,0.05,47.95,0)" xlink:href="#u"/><use transform="matrix(0.05,0,0,0.05,57.95,0)" xlink:href="#v"/><use transform="matrix(0.05,0,0,0.05,67.95,0)" xlink:href="#w"/><use transform="matrix(0.05,0,0,0.05,82.9,0)" xlink:href="#x"/><use transform="matrix(0.05,0,0,0.05,86.85000000000001,0)" xlink:href="#y"/></g><path d="M240 0l2-218c-23 76-54 145-80 218h-23L58-218 59 0H30v-248h44l77 211c21-75 51-140 76-211h43V0h-30" id="z"/><path d="M100-194c62-1 85 37 85 99 1 63-27 99-86 99S16-35 15-95c0-66 28-99 85-99zM99-20c44 1 53-31 53-75 0-43-8-75-51-75s-53 32-53 75 10 74 51 75" id="A"/><path d="M59-47c-2 24 18 29 38 22v24C64 9 27 4 27-40v-127H5v-23h24l9-43h21v43h35v23H59v120" id="B"/><g id="b"><use transform="matrix(0.05,0,0,0.05,0,0)" xlink:href="#z"/><use transform="matrix(0.05,0,0,0.05,14.950000000000001,0)" xlink:href="#A"/><use transform="matrix(0.05,0,0,0.05,24.950000000000003,0)" xlink:href="#v"/><use transform="matrix(0.05,0,0,0.05,34.95,0)" xlink:href="#s"/><use transform="matrix(0.05,0,0,0.05,44.95,0)" xlink:href="#t"/><use transform="matrix(0.05,0,0,0.05,50.900000000000006,0)" xlink:href="#u"/><use transform="matrix(0.05,0,0,0.05,60.900000000000006,0)" xlink:href="#B"/><use transform="matrix(0.05,0,0,0.05,65.9,0)" xlink:href="#A"/><use transform="matrix(0.05,0,0,0.05,75.9,0)" xlink:href="#t"/></g><path d="M205 0l-28-72H64L36 0H1l101-248h38L239 0h-34zm-38-99l-47-123c-12 45-31 82-46 123h93" id="C"/><g id="c"><use transform="matrix(0.05,0,0,0.05,0,0)" xlink:href="#C"/><use transform="matrix(0.05,0,0,0.05,12,0)" xlink:href="#v"/><use transform="matrix(0.05,0,0,0.05,22,0)" xlink:href="#w"/><use transform="matrix(0.05,0,0,0.05,36.95,0)" xlink:href="#x"/><use transform="matrix(0.05,0,0,0.05,40.900000000000006,0)" xlink:href="#y"/></g><path d="M266 0h-40l-56-210L115 0H75L2-248h35L96-30l15-64 43-154h32l59 218 59-218h35" id="D"/><path d="M115-194c53 0 69 39 70 98 0 66-23 100-70 100C84 3 66-7 56-30L54 0H23l1-261h32v101c10-23 28-34 59-34zm-8 174c40 0 45-34 45-75 0-40-5-75-45-74-42 0-51 32-51 76 0 43 10 73 51 73" id="E"/><g id="d"><use transform="matrix(0.05,0,0,0.05,0,0)" xlink:href="#D"/><use transform="matrix(0.05,0,0,0.05,16.599999999999998,0)" xlink:href="#s"/><use transform="matrix(0.05,0,0,0.05,26.599999999999994,0)" xlink:href="#E"/></g><path d="M143 4C61 4 22-44 18-125c-5-107 100-154 193-111 17 8 29 25 37 43l-32 9c-13-25-37-40-76-40-61 0-88 39-88 99 0 61 29 100 91 101 35 0 62-11 79-27v-45h-74v-28h105v86C228-13 192 4 143 4" id="F"/><path d="M232-93c-1 65-40 97-104 97C67 4 28-28 28-90v-158h33c8 89-33 224 67 224 102 0 64-133 71-224h33v155" id="G"/><path d="M33 0v-248h34V0H33" id="H"/><g id="e"><use transform="matrix(0.05,0,0,0.05,0,0)" xlink:href="#F"/><use transform="matrix(0.05,0,0,0.05,14,0)" xlink:href="#G"/><use transform="matrix(0.05,0,0,0.05,26.950000000000003,0)" xlink:href="#H"/></g><path d="M190 0L58-211 59 0H30v-248h39L202-35l-2-213h31V0h-41" id="I"/><path d="M9 0v-24l116-142H16v-24h144v24L44-24h123V0H9" id="J"/><g id="f"><use transform="matrix(0.05,0,0,0.05,0,0)" xlink:href="#I"/><use transform="matrix(0.05,0,0,0.05,12.950000000000001,0)" xlink:href="#q"/><use transform="matrix(0.05,0,0,0.05,22.950000000000003,0)" xlink:href="#B"/><use transform="matrix(0.05,0,0,0.05,27.950000000000003,0)" xlink:href="#J"/><use transform="matrix(0.05,0,0,0.05,36.95,0)" xlink:href="#s"/><use transform="matrix(0.05,0,0,0.05,46.95,0)" xlink:href="#t"/></g><path d="M108 0H70L1-190h34L89-25l56-165h34" id="K"/><path d="M206 0h-36l-40-164L89 0H53L-1-190h32L70-26l43-164h34l41 164 42-164h31" id="L"/><path d="M24 0v-261h32V0H24" id="M"/><g id="g"><use transform="matrix(0.05,0,0,0.05,0,0)" xlink:href="#K"/><use transform="matrix(0.05,0,0,0.05,9,0)" xlink:href="#s"/><use transform="matrix(0.05,0,0,0.05,19,0)" xlink:href="#t"/><use transform="matrix(0.05,0,0,0.05,24.95,0)" xlink:href="#L"/><use transform="matrix(0.05,0,0,0.05,37.9,0)" xlink:href="#u"/><use transform="matrix(0.05,0,0,0.05,47.9,0)" xlink:href="#M"/><use transform="matrix(0.05,0,0,0.05,51.85,0)" xlink:href="#B"/><use transform="matrix(0.05,0,0,0.05,56.85,0)" xlink:href="#s"/><use transform="matrix(0.05,0,0,0.05,66.85,0)" xlink:href="#y"/></g><g id="h"><use transform="matrix(0.05,0,0,0.05,0,0)" xlink:href="#C"/><use transform="matrix(0.05,0,0,0.05,12,0)" xlink:href="#y"/><use transform="matrix(0.05,0,0,0.05,22,0)" xlink:href="#w"/><use transform="matrix(0.05,0,0,0.05,36.95,0)" xlink:href="#s"/><use transform="matrix(0.05,0,0,0.05,46.95,0)" xlink:href="#M"/><use transform="matrix(0.05,0,0,0.05,50.900000000000006,0)" xlink:href="#v"/><use transform="matrix(0.05,0,0,0.05,60.900000000000006,0)" xlink:href="#s"/><use transform="matrix(0.05,0,0,0.05,70.9,0)" xlink:href="#y"/></g><g id="i"><use transform="matrix(0.05,0,0,0.05,0,0)" xlink:href="#C"/><use transform="matrix(0.05,0,0,0.05,12,0)" xlink:href="#E"/><use transform="matrix(0.05,0,0,0.05,22,0)" xlink:href="#w"/><use transform="matrix(0.05,0,0,0.05,36.95,0)" xlink:href="#s"/><use transform="matrix(0.05,0,0,0.05,46.95,0)" xlink:href="#M"/><use transform="matrix(0.05,0,0,0.05,50.900000000000006,0)" xlink:href="#v"/><use transform="matrix(0.05,0,0,0.05,60.900000000000006,0)" xlink:href="#s"/><use transform="matrix(0.05,0,0,0.05,70.9,0)" xlink:href="#y"/></g><path d="M127-220V0H93v-220H8v-28h204v28h-85" id="N"/><path d="M135-143c-3-34-86-38-87 0 15 53 115 12 119 90S17 21 10-45l28-5c4 36 97 45 98 0-10-56-113-15-118-90-4-57 82-63 122-42 12 7 21 19 24 35" id="O"/><path d="M177-190C167-65 218 103 67 71c-23-6-38-20-44-43l32-5c15 47 100 32 89-28v-30C133-14 115 1 83 1 29 1 15-40 15-95c0-56 16-97 71-98 29-1 48 16 59 35 1-10 0-23 2-32h30zM94-22c36 0 50-32 50-73 0-42-14-75-50-75-39 0-46 34-46 75s6 73 46 73" id="P"/><g id="j"><use transform="matrix(0.05,0,0,0.05,0,0)" xlink:href="#N"/><use transform="matrix(0.05,0,0,0.05,8.950000000000001,0)" xlink:href="#s"/><use transform="matrix(0.05,0,0,0.05,18.950000000000003,0)" xlink:href="#O"/><use transform="matrix(0.05,0,0,0.05,27.950000000000003,0)" xlink:href="#B"/><use transform="matrix(0.05,0,0,0.05,32.95,0)" xlink:href="#q"/><use transform="matrix(0.05,0,0,0.05,42.95,0)" xlink:href="#w"/><use transform="matrix(0.05,0,0,0.05,57.900000000000006,0)" xlink:href="#P"/><use transform="matrix(0.05,0,0,0.05,67.9,0)" xlink:href="#s"/><use transform="matrix(0.05,0,0,0.05,77.9,0)" xlink:href="#E"/><use transform="matrix(0.05,0,0,0.05,87.9,0)" xlink:href="#q"/><use transform="matrix(0.05,0,0,0.05,97.9,0)" xlink:href="#y"/><use transform="matrix(0.05,0,0,0.05,107.9,0)" xlink:href="#P"/></g><path d="M101-234c-31-9-42 10-38 44h38v23H63V0H32v-167H5v-23h27c-7-52 17-82 69-68v24" id="Q"/><path d="M85 4C-4 8 31-112 24-190h32v120c0 31 7 50 39 49 72-2 45-101 50-169h31l1 190h-30c-1-10 1-25-2-33-11 22-28 36-60 37zm34-218v-33h29v33h-29zm-69 0v-33h29v33H50" id="R"/><g id="k"><use transform="matrix(0.05,0,0,0.05,0,0)" xlink:href="#Q"/><use transform="matrix(0.05,0,0,0.05,5,0)" xlink:href="#R"/><use transform="matrix(0.05,0,0,0.05,15,0)" xlink:href="#t"/></g><g id="l"><use transform="matrix(0.05,0,0,0.05,0,0)" xlink:href="#I"/><use transform="matrix(0.05,0,0,0.05,12.950000000000001,0)" xlink:href="#s"/><use transform="matrix(0.05,0,0,0.05,22.950000000000003,0)" xlink:href="#B"/><use transform="matrix(0.05,0,0,0.05,27.950000000000003,0)" xlink:href="#J"/><use transform="matrix(0.05,0,0,0.05,36.95,0)" xlink:href="#s"/></g><g id="m"><use transform="matrix(0.05,0,0,0.05,0,0)" xlink:href="#y"/><use transform="matrix(0.05,0,0,0.05,10,0)" xlink:href="#q"/><use transform="matrix(0.05,0,0,0.05,20,0)" xlink:href="#B"/><use transform="matrix(0.05,0,0,0.05,25,0)" xlink:href="#J"/><use transform="matrix(0.05,0,0,0.05,34,0)" xlink:href="#s"/><use transform="matrix(0.05,0,0,0.05,44,0)" xlink:href="#y"/></g><path d="M30 0v-248h187v28H63v79h144v27H63v87h162V0H30" id="S"/><path d="M16-82v-28h88v28H16" id="T"/><g id="n"><use transform="matrix(0.05,0,0,0.05,0,0)" xlink:href="#S"/><use transform="matrix(0.05,0,0,0.05,12,0)" xlink:href="#K"/><use transform="matrix(0.05,0,0,0.05,21,0)" xlink:href="#x"/><use transform="matrix(0.05,0,0,0.05,24.95,0)" xlink:href="#v"/><use transform="matrix(0.05,0,0,0.05,34.95,0)" xlink:href="#s"/><use transform="matrix(0.05,0,0,0.05,44.95,0)" xlink:href="#y"/><use transform="matrix(0.05,0,0,0.05,54.95,0)" xlink:href="#J"/><use transform="matrix(0.05,0,0,0.05,63.95,0)" xlink:href="#T"/><use transform="matrix(0.05,0,0,0.05,69.9,0)" xlink:href="#S"/><use transform="matrix(0.05,0,0,0.05,81.9,0)" xlink:href="#v"/><use transform="matrix(0.05,0,0,0.05,91.9,0)" xlink:href="#x"/><use transform="matrix(0.05,0,0,0.05,95.85000000000001,0)" xlink:href="#B"/><use transform="matrix(0.05,0,0,0.05,100.85000000000001,0)" xlink:href="#A"/><use transform="matrix(0.05,0,0,0.05,110.85000000000001,0)" xlink:href="#t"/></g><g id="o"><use transform="matrix(0.05,0,0,0.05,0,0)" xlink:href="#I"/><use transform="matrix(0.05,0,0,0.05,12.950000000000001,0)" xlink:href="#s"/><use transform="matrix(0.05,0,0,0.05,22.950000000000003,0)" xlink:href="#B"/><use transform="matrix(0.05,0,0,0.05,27.950000000000003,0)" xlink:href="#J"/><use transform="matrix(0.05,0,0,0.05,36.95,0)" xlink:href="#T"/><use transform="matrix(0.05,0,0,0.05,42.900000000000006,0)" xlink:href="#S"/><use transform="matrix(0.05,0,0,0.05,54.900000000000006,0)" xlink:href="#v"/><use transform="matrix(0.05,0,0,0.05,64.9,0)" xlink:href="#x"/><use transform="matrix(0.05,0,0,0.05,68.85000000000001,0)" xlink:href="#B"/><use transform="matrix(0.05,0,0,0.05,73.85000000000001,0)" xlink:href="#A"/><use transform="matrix(0.05,0,0,0.05,83.85000000000001,0)" xlink:href="#t"/></g></defs></g></svg>