<svg id="Ebene_1" data-name="Ebene 1" xmlns="http://www.w3.org/2000/svg" viewBox="0 0 1280 800"><defs><style>.cls-1{font-size:34.16px;}.cls-1,.cls-12,.cls-14,.cls-20,.cls-22,.cls-25,.cls-29,.cls-32,.cls-41,.cls-51,.cls-54,.cls-6{font-family:MyriadPro-Regular, Myriad Pro;}.cls-2{letter-spacing:0.01em;}.cls-3{letter-spacing:0em;}.cls-4{letter-spacing:-0.01em;}.cls-5{letter-spacing:0em;}.cls-6{font-size:23.93px;text-decoration:underline;}.cls-7{letter-spacing:0em;}.cls-8{letter-spacing:-0.01em;}.cls-9{letter-spacing:0em;}.cls-10{letter-spacing:-0.01em;}.cls-11,.cls-31{fill:none;stroke:#000;stroke-miterlimit:10;}.cls-11{stroke-width:2px;}.cls-12,.cls-14,.cls-20{font-size:28px;}.cls-12{letter-spacing:-0.01em;}.cls-13{letter-spacing:0em;}.cls-15{letter-spacing:0em;}.cls-16{letter-spacing:-0.01em;}.cls-17{letter-spacing:-0.01em;}.cls-18{letter-spacing:0.01em;}.cls-19{letter-spacing:-0.01em;}.cls-20{letter-spacing:-0.07em;}.cls-21{letter-spacing:0em;}.cls-22{font-size:26.43px;}.cls-23{letter-spacing:-0.01em;}.cls-24{letter-spacing:0em;}.cls-25{opacity:0.68;font-size:32.58px;}.cls-26{letter-spacing:0em;}.cls-27{letter-spacing:-0.01em;}.cls-28{opacity:0.29;}.cls-29,.cls-32{font-size:24.65px;}.cls-29{letter-spacing:-0.01em;}.cls-30{letter-spacing:0em;}.cls-33{letter-spacing:0.01em;}.cls-34{letter-spacing:0.01em;}.cls-35{letter-spacing:0em;}.cls-36{letter-spacing:0em;}.cls-37{letter-spacing:-0.01em;}.cls-38{letter-spacing:-0.02em;}.cls-39{letter-spacing:-0.07em;}.cls-40{letter-spacing:-0.01em;}.cls-41{font-size:20.21px;}.cls-42{letter-spacing:-0.02em;}.cls-43{letter-spacing:0em;}.cls-44{letter-spacing:0.01em;}.cls-45{letter-spacing:0em;}.cls-46{letter-spacing:-0.01em;}.cls-47{letter-spacing:-0.04em;}.cls-48{letter-spacing:-0.02em;}.cls-49{letter-spacing:-0.01em;}.cls-50{letter-spacing:0.06em;}.cls-51{font-size:32.3px;}.cls-52{letter-spacing:-0.07em;}.cls-53{letter-spacing:0em;}.cls-54{font-size:27px;}.cls-55{letter-spacing:1.12em;}.cls-56{letter-spacing:0.01em;}.cls-57{letter-spacing:0em;}</style></defs><title>GUI</title><path d="M1278,2V798H2V2H1278m2-2H0V800H1280V0Z"/><path d="M1278,2V78H2V2H1278m2-2H0V80H1280V0Z"/><text class="cls-1" transform="translate(24.33 40)"><tspan class="cls-2">M</tspan><tspan x="27.67" y="0">ax </tspan><tspan class="cls-3" x="67.19" y="0">M</tspan><tspan x="94.76" y="0">us</tspan><tspan class="cls-4" x="127.11" y="0">t</tspan><tspan x="138.21" y="0">e</tspan><tspan class="cls-5" x="155.33" y="0">r</tspan><tspan x="166.63" y="0">mann</tspan></text><text class="cls-6" transform="translate(25.67 63.43)"><tspan class="cls-7">R</tspan><tspan x="12.97" y="0">es</tspan><tspan class="cls-8" x="34.44" y="0">t</tspan><tspan class="cls-9" x="42.22" y="0">e pass</tspan><tspan class="cls-10" x="103.39" y="0">w</tspan><tspan x="120.77" y="0">o</tspan><tspan class="cls-10" x="133.91" y="0">r</tspan><tspan x="141.49" y="0">d</tspan></text><rect class="cls-11" x="1136" y="22" width="110" height="35.12"/><text class="cls-12" transform="translate(1149.04 48.53)">L<tspan class="cls-13" x="12.82" y="0">ogout</tspan></text><rect class="cls-11" x="269" y="618" width="110" height="35.12"/><text class="cls-14" transform="translate(296.81 644.53)"><tspan class="cls-15">S</tspan><tspan class="cls-16" x="13.89" y="0">a</tspan><tspan class="cls-17" x="27.16" y="0">v</tspan><tspan x="40.35" y="0">e</tspan></text><rect class="cls-11" x="619" y="104.43" width="110" height="35.12"/><text class="cls-14" transform="translate(664.15 130.96)"><tspan class="cls-18">I</tspan><tspan x="6.97" y="0">n</tspan><tspan class="cls-19" x="22.51" y="0">f</tspan><tspan class="cls-13" x="30.32" y="0">o</tspan></text><path d="M645,112a10,10,0,1,0,10,10A10,10,0,0,0,645,112Zm1,15h-2v-6h2Zm0-8h-2v-2h2Z"/><rect class="cls-11" x="852.67" y="526.88" width="110" height="35.12"/><text class="cls-20" transform="translate(897.51 553.41)">T<tspan class="cls-21" x="11.93" y="0">est</tspan></text><path d="M886.13,538.07l-2.34-2.34a1,1,0,0,0-1.41,0l-3.12,3.12-1.93-1.91-1.41,1.41,1.42,1.42-8.92,8.92v4.75h4.75l8.92-8.92,1.42,1.42,1.41-1.41L883,542.61l3.12-3.12A1,1,0,0,0,886.13,538.07Zm-13.79,13.37-1.92-1.92,8.06-8.06,1.92,1.92Z"/><rect class="cls-11" x="19.65" y="687.42" width="204.03" height="33.15"/><text class="cls-22" transform="translate(24.05 712.46)">+ New Exp<tspan class="cls-23" x="117.32" y="0">r</tspan><tspan x="125.7" y="0">ession</tspan></text><rect class="cls-11" x="946" y="22.44" width="171" height="35.12"/><text class="cls-14" transform="translate(962.69 48.97)">Netzansic<tspan class="cls-24" x="112.92" y="0">h</tspan><tspan x="128.35" y="0">t</tspan></text><rect class="cls-11" x="269" y="96.58" width="263.72" height="50.83"/><text class="cls-25" transform="translate(283.5 132.43)">an<tspan class="cls-26" x="33.79" y="0">D</tspan><tspan x="55.62" y="0">er</tspan><tspan class="cls-27" x="82.6" y="0">K</tspan><tspan x="100.07" y="0">üs</tspan><tspan class="cls-27" x="130.92" y="0">t</tspan><tspan x="141.51" y="0">e</tspan></text><rect class="cls-11" x="835.33" y="22" width="91.67" height="35.12"/><text class="cls-14" transform="translate(864.96 48.53)">DE</text><polygon points="817.94 45.85 810.67 33.27 825.2 33.27 817.94 45.85"/><rect class="cls-11" x="800.67" y="22" width="126.33" height="35.12"/><rect class="cls-11" y="80" width="242.33" height="720"/><rect class="cls-28" y="156.19" width="242.33" height="37.07"/><text class="cls-29" transform="translate(12 107.38)">E<tspan class="cls-30" x="11.96" y="0">videnz 1</tspan></text><path d="M209.32,107.94a2.4,2.4,0,0,0,2.39,2.39h9.58a2.4,2.4,0,0,0,2.39-2.39V93.57H209.32Zm15.56-18h-4.19l-1.2-1.2h-6l-1.2,1.2h-4.19v2.39h16.76Z"/><line class="cls-31" y1="119.12" x2="242.33" y2="119.12"/><text class="cls-32" transform="translate(12 144.45)">ist<tspan class="cls-33" x="23.69" y="0">S</tspan><tspan x="36" y="0">ehr</tspan><tspan class="cls-34" x="70.09" y="0">S</tspan><tspan class="cls-35" x="82.4" y="0">chnell</tspan></text><path d="M209.32,145a2.4,2.4,0,0,0,2.39,2.39h9.58a2.4,2.4,0,0,0,2.39-2.39V130.65H209.32Zm15.56-18h-4.19l-1.2-1.2h-6l-1.2,1.2h-4.19v2.39h16.76Z"/><line class="cls-31" y1="156.19" x2="242.33" y2="156.19"/><text class="cls-32" transform="translate(12 181.53)">an<tspan class="cls-36" x="25.57" y="0">D</tspan><tspan class="cls-35" x="42.08" y="0">er</tspan><tspan class="cls-37" x="62.5" y="0">K</tspan><tspan class="cls-30" x="75.71" y="0">üs</tspan><tspan class="cls-37" x="99.06" y="0">t</tspan><tspan class="cls-35" x="107.07" y="0">e</tspan></text><path d="M209.32,182.09a2.4,2.4,0,0,0,2.39,2.39h9.58a2.4,2.4,0,0,0,2.39-2.39V167.72H209.32Zm15.56-18h-4.19l-1.2-1.2h-6l-1.2,1.2h-4.19v2.39h16.76Z"/><line class="cls-31" y1="193.27" x2="242.33" y2="193.27"/><text class="cls-32" transform="translate(12 218.6)">hältNeben<tspan class="cls-34" x="108.18" y="0">S</tspan><tspan class="cls-35" x="120.49" y="0">chiff</tspan></text><path d="M209.32,219.16a2.4,2.4,0,0,0,2.39,2.39h9.58a2.4,2.4,0,0,0,2.39-2.39V204.8H209.32Zm15.56-18h-4.19l-1.2-1.2h-6l-1.2,1.2h-4.19v2.39h16.76Z"/><line class="cls-31" y1="230.34" x2="242.33" y2="230.34"/><text class="cls-32" transform="translate(12 255.67)">eviden<tspan class="cls-38" x="69.92" y="0">z</tspan><tspan class="cls-39" x="79.98" y="0">T</tspan><tspan class="cls-35" x="90.48" y="0">est32</tspan></text><path d="M209.32,256.24a2.4,2.4,0,0,0,2.39,2.39h9.58a2.4,2.4,0,0,0,2.39-2.39V241.87H209.32Zm15.56-18h-4.19l-1.2-1.2h-6l-1.2,1.2h-4.19v2.39h16.76Z"/><line class="cls-31" y1="267.42" x2="242.33" y2="267.42"/><text class="cls-29" transform="translate(12 292.75)">E<tspan class="cls-30" x="11.96" y="0">videnz 1337</tspan></text><path d="M209.32,293.31a2.4,2.4,0,0,0,2.39,2.39h9.58a2.4,2.4,0,0,0,2.39-2.39V278.95H209.32Zm15.56-18h-4.19l-1.2-1.2h-6l-1.2,1.2h-4.19v2.39h16.76Z"/><line class="cls-31" y1="304.49" x2="242.33" y2="304.49"/><text class="cls-32" transform="translate(12 329.82)">in<tspan class="cls-40" x="19.45" y="0">Z</tspan><tspan x="32.79" y="0">oneB4</tspan></text><path d="M209.32,330.39a2.4,2.4,0,0,0,2.39,2.39h9.58a2.4,2.4,0,0,0,2.39-2.39V316H209.32Zm15.56-18h-4.19l-1.2-1.2h-6l-1.2,1.2h-4.19v2.39h16.76Z"/><line class="cls-31" y1="341.57" x2="242.33" y2="341.57"/><rect class="cls-11" x="269" y="193.27" width="536" height="373.73"/><text class="cls-41" transform="translate(283.5 224.66)">shi<tspan class="cls-42" x="23.95" y="0">p</tspan><tspan class="cls-43" x="34.96" y="0">.speed &lt;= 13.5</tspan><tspan x="0" y="24.25">&amp; is</tspan><tspan class="cls-44" x="29.24" y="24.25">I</tspan><tspan x="34.28" y="24.25">n</tspan><tspan class="cls-45" x="45.49" y="24.25">A</tspan><tspan class="cls-46" x="57.8" y="24.25">r</tspan><tspan x="64.21" y="24.25">ea(shi</tspan><tspan class="cls-42" x="113.76" y="24.25">p</tspan><tspan class="cls-43" x="124.78" y="24.25">.x, shi</tspan><tspan class="cls-42" x="170.74" y="24.25">p</tspan><tspan class="cls-43" x="181.75" y="24.25">.</tspan><tspan class="cls-47" x="185.94" y="24.25">y</tspan><tspan class="cls-43" x="194.67" y="24.25">, AREA_</tspan><tspan class="cls-48" x="258.79" y="24.25">C</tspan><tspan class="cls-49" x="270.09" y="24.25">O</tspan><tspan x="283.73" y="24.25">AS</tspan><tspan class="cls-50" x="306.07" y="24.25">T</tspan><tspan x="317.32" y="24.25">)</tspan></text><text class="cls-51" transform="translate(848.01 223.03)"><tspan class="cls-52">T</tspan><tspan x="13.76" y="0">est D</tspan><tspan class="cls-53" x="81.77" y="0">a</tspan><tspan x="97.21" y="0">ta</tspan></text><text class="cls-54" transform="translate(860.33 264.67)">ship:<tspan class="cls-55" x="0" y="32.4">	</tspan><tspan x="36" y="32.4">.x =</tspan><tspan class="cls-55" x="0" y="64.8">	</tspan><tspan x="36" y="64.8">.y =</tspan><tspan class="cls-55" x="0" y="97.2">	</tspan><tspan x="36" y="97.2">.speed =</tspan><tspan class="cls-55" x="0" y="129.6">	</tspan><tspan x="36" y="129.6">.</tspan><tspan class="cls-56" x="41.59" y="129.6">t</tspan><tspan x="50.77" y="129.6">ype =</tspan></text><rect class="cls-31" x="941.33" y="277.67" width="79.67" height="26"/><rect class="cls-31" x="941.33" y="308.33" width="79.67" height="26"/><rect class="cls-31" x="996.67" y="340.67" width="79.67" height="26"/><rect class="cls-31" x="981.17" y="374" width="79.67" height="26"/><text class="cls-54" transform="translate(989.83 554.44)"><tspan class="cls-57">R</tspan><tspan x="14.63" y="0">esult:</tspan></text></svg>