<svg id="Ebene_1" data-name="Ebene 1" xmlns="http://www.w3.org/2000/svg" viewBox="0 0 1280 800"><defs><style>.cls-1,.cls-8{fill:none;}.cls-1,.cls-41,.cls-56,.cls-8{stroke:#000;stroke-miterlimit:10;}.cls-1,.cls-56{stroke-width:2px;}.cls-2,.cls-4,.cls-50{font-size:28px;}.cls-11,.cls-14,.cls-16,.cls-19,.cls-2,.cls-4,.cls-46,.cls-50,.cls-9{font-family:MyriadPro-Regular, Myriad Pro;}.cls-2{letter-spacing:-0.01em;}.cls-3{letter-spacing:0em;}.cls-5{letter-spacing:-0.01em;}.cls-6{letter-spacing:0.01em;}.cls-7{letter-spacing:-0.01em;}.cls-8{stroke-width:3px;}.cls-19,.cls-9{font-size:24.59px;}.cls-9{letter-spacing:-0.07em;}.cls-10{letter-spacing:0em;}.cls-11{font-size:19.75px;}.cls-12{letter-spacing:-0.01em;}.cls-13{letter-spacing:-0.05em;}.cls-14,.cls-16{font-size:17.28px;}.cls-14{letter-spacing:0em;}.cls-15{letter-spacing:0em;}.cls-17{letter-spacing:0em;}.cls-18{letter-spacing:-0.01em;}.cls-20{letter-spacing:-0.02em;}.cls-21{letter-spacing:0.01em;}.cls-22{letter-spacing:-0.01em;}.cls-23{letter-spacing:-0.01em;}.cls-24{letter-spacing:-0.01em;}.cls-25{letter-spacing:0em;}.cls-26{letter-spacing:0em;}.cls-27{letter-spacing:-0.04em;}.cls-28{letter-spacing:-0.03em;}.cls-29{letter-spacing:0em;}.cls-30{letter-spacing:-0.04em;}.cls-31{letter-spacing:-0.02em;}.cls-32{letter-spacing:0em;}.cls-33{letter-spacing:-0.01em;}.cls-34{letter-spacing:0em;}.cls-35{letter-spacing:0em;}.cls-36{letter-spacing:0em;}.cls-37{letter-spacing:-0.01em;}.cls-38{letter-spacing:-0.01em;}.cls-39{letter-spacing:-0.01em;}.cls-40,.cls-50{opacity:0.5;}.cls-41{fill:#fff;stroke-width:4px;}.cls-42{letter-spacing:0em;}.cls-43{letter-spacing:-0.01em;}.cls-44{letter-spacing:0em;}.cls-45{letter-spacing:-0.01em;}.cls-46{font-size:37.8px;}.cls-47{letter-spacing:0em;}.cls-48{letter-spacing:-0.01em;}.cls-49{letter-spacing:0em;}.cls-51{letter-spacing:-0.03em;}.cls-52{letter-spacing:-0.01em;}.cls-53{letter-spacing:0em;}.cls-54{letter-spacing:-0.01em;}.cls-55{letter-spacing:0em;}</style></defs><title>GUI</title><path d="M1278,2V798H2V2H1278m2-2H0V800H1280V0Z"/><path d="M1278,2V78H2V2H1278m2-2H0V80H1280V0Z"/><path d="M25.43,47a10.27,10.27,0,0,0,5.2,1.47c3,0,4.7-1.57,4.7-3.83,0-2.1-1.2-3.3-4.23-4.46-3.66-1.3-5.93-3.2-5.93-6.36,0-3.5,2.9-6.1,7.26-6.1a10.21,10.21,0,0,1,5,1.1l-.8,2.37a8.94,8.94,0,0,0-4.26-1.07c-3.06,0-4.23,1.83-4.23,3.36,0,2.1,1.37,3.13,4.46,4.33,3.8,1.47,5.73,3.3,5.73,6.6,0,3.46-2.56,6.46-7.86,6.46a11.6,11.6,0,0,1-5.73-1.43Z"/><path d="M55.64,46.13c0,1.67,0,3.13.13,4.4h-2.6L53,47.9h-.07a6.07,6.07,0,0,1-5.33,3c-2.53,0-5.56-1.4-5.56-7.06V34.41H45v8.93c0,3.06.93,5.13,3.6,5.13a4.24,4.24,0,0,0,3.86-2.66,4.29,4.29,0,0,0,.27-1.5V34.41h2.93Z"/><path d="M60.5,39.67c0-2.07-.07-3.73-.13-5.26H63l.13,2.76h.07A6.34,6.34,0,0,1,68.93,34c3.9,0,6.83,3.3,6.83,8.19,0,5.8-3.53,8.66-7.33,8.66a5.65,5.65,0,0,1-5-2.53H63.4v8.76H60.5ZM63.4,44a6.58,6.58,0,0,0,.13,1.2,4.52,4.52,0,0,0,4.4,3.43c3.1,0,4.9-2.53,4.9-6.23,0-3.23-1.7-6-4.8-6A4.68,4.68,0,0,0,63.6,40a4.77,4.77,0,0,0-.2,1.2Z"/><path d="M81.08,43c.07,4,2.6,5.6,5.53,5.6a10.6,10.6,0,0,0,4.46-.83l.5,2.1a13.06,13.06,0,0,1-5.36,1c-5,0-7.93-3.26-7.93-8.13S81.15,34,85.85,34c5.26,0,6.66,4.63,6.66,7.59a11.07,11.07,0,0,1-.1,1.37Zm8.59-2.1c0-1.87-.77-4.76-4.06-4.76-3,0-4.26,2.73-4.5,4.76Z"/><path d="M96.14,39.44c0-1.9,0-3.53-.13-5h2.56l.1,3.16h.13A4.84,4.84,0,0,1,103.27,34a3.18,3.18,0,0,1,.83.1V36.9a4.39,4.39,0,0,0-1-.1c-2.07,0-3.53,1.57-3.93,3.76A8.21,8.21,0,0,0,99,41.93v8.59h-2.9Z"/><path d="M117.82,43.47l-2.33,7.06h-3l7.63-22.45h3.5l7.66,22.45h-3.1l-2.4-7.06Zm7.36-2.27L123,34.74c-.5-1.47-.83-2.8-1.17-4.1h-.07c-.33,1.33-.7,2.7-1.13,4.06l-2.2,6.5Z"/><path d="M148,26.88V46.36c0,1.43,0,3.06.13,4.16H145.5l-.13-2.8h-.07a6,6,0,0,1-5.5,3.16c-3.9,0-6.9-3.3-6.9-8.19,0-5.36,3.3-8.66,7.23-8.66A5.39,5.39,0,0,1,145,36.5h.07V26.88ZM145.07,41a5.17,5.17,0,0,0-.13-1.23,4.31,4.31,0,0,0-4.23-3.4c-3,0-4.83,2.66-4.83,6.23,0,3.26,1.6,6,4.76,6a4.41,4.41,0,0,0,4.3-3.5,5.08,5.08,0,0,0,.13-1.27Z"/><path d="M152.86,38.77c0-1.67,0-3-.13-4.36h2.56l.13,2.6h.1a5.56,5.56,0,0,1,5.06-3,4.77,4.77,0,0,1,4.56,3.23h.07a6.64,6.64,0,0,1,1.8-2.1A5.5,5.5,0,0,1,170.58,34c2.13,0,5.3,1.4,5.3,7v9.49H173V41.4c0-3.1-1.13-5-3.5-5a3.79,3.79,0,0,0-3.46,2.67,4.83,4.83,0,0,0-.23,1.47v10H163V40.87c0-2.56-1.13-4.43-3.36-4.43a4.37,4.37,0,0,0-3.86,4.36v9.73h-2.86Z"/><path d="M183.91,29.88a1.82,1.82,0,0,1-3.63,0A1.79,1.79,0,0,1,182.11,28,1.74,1.74,0,0,1,183.91,29.88Zm-3.26,20.65V34.41h2.93V50.53Z"/><path d="M188.44,38.77c0-1.67,0-3-.13-4.36h2.6l.17,2.67h.07a5.93,5.93,0,0,1,5.33-3c2.23,0,5.7,1.33,5.7,6.86v9.63h-2.93V41.23c0-2.6-1-4.76-3.73-4.76a4.16,4.16,0,0,0-3.93,3,4.21,4.21,0,0,0-.2,1.37v9.69h-2.93Z"/><rect class="cls-1" x="1136" y="22" width="110" height="35.12"/><text class="cls-2" transform="translate(1149.04 48.53)">L<tspan class="cls-3" x="12.82" y="0">ogout</tspan></text><rect class="cls-1" x="60.37" y="563" width="205.63" height="35.12"/><text class="cls-4" transform="translate(69.49 589.53)">+ <tspan class="cls-5" x="22.62" y="0">A</tspan><tspan x="39.42" y="0">dd new user</tspan></text><rect class="cls-1" x="1007.33" y="22" width="91.67" height="35.12"/><text class="cls-4" transform="translate(1036.96 48.53)">DE</text><polygon points="989.94 45.85 982.67 33.27 997.2 33.27 989.94 45.85"/><rect class="cls-1" x="972.67" y="22" width="126.33" height="35.12"/><rect class="cls-1" x="60.37" y="121" width="430.63" height="52"/><rect class="cls-1" x="60.37" y="121" width="549.63" height="52"/><text class="cls-4" transform="translate(511.77 156)"><tspan class="cls-6">S</tspan><tspan x="13.97" y="0">ea</tspan><tspan class="cls-7" x="41.5" y="0">r</tspan><tspan x="50.37" y="0">ch</tspan></text><line class="cls-8" x1="72.83" y1="128.75" x2="72.83" y2="165.25"/><rect class="cls-1" x="60.37" y="214" width="549.63" height="64.09"/><text class="cls-9" transform="translate(118.42 246.05)">T<tspan class="cls-10" x="10.48" y="0">om Haller</tspan></text><text class="cls-11" transform="translate(118.42 263.34)"><tspan class="cls-12">t</tspan><tspan x="6.42" y="0">om@halle</tspan><tspan class="cls-13" x="87.97" y="0">r</tspan><tspan x="93.38" y="0">.de</tspan></text><rect class="cls-1" x="502.25" y="224.37" width="94.8" height="21.68"/><text class="cls-14" transform="translate(532.72 240.01)">E<tspan class="cls-15" x="8.43" y="0">dit</tspan></text><path d="M507.62,239.3v2.93h2.93l8.63-8.63-2.93-2.93Zm13.82-8a.78.78,0,0,0,0-1.1l-1.83-1.83a.78.78,0,0,0-1.1,0l-1.43,1.43,2.93,2.93Z"/><rect class="cls-1" x="502.25" y="246.05" width="94.8" height="21.68"/><text class="cls-16" transform="translate(532.72 262.01)"><tspan class="cls-17">D</tspan><tspan x="11.58" y="0">ele</tspan><tspan class="cls-18" x="32.97" y="0">t</tspan><tspan x="38.59" y="0">e</tspan></text><path d="M509.89,262.42a1.59,1.59,0,0,0,1.58,1.58h6.33a1.59,1.59,0,0,0,1.58-1.58v-9.5h-9.5Zm10.29-11.87h-2.77l-.79-.79h-4l-.79.79H509.1v1.58h11.08Z"/><path d="M89.68,227.71l-15,6.67v10c0,9.25,6.4,17.9,15,20,8.6-2.1,15-10.75,15-20v-10Zm-3.33,26.67-6.67-6.67L82,245.36l4.32,4.3,11-11L99.68,241Z"/><rect class="cls-1" x="60.37" y="278.09" width="549.63" height="64.09"/><text class="cls-19" transform="translate(118.42 310.14)"><tspan class="cls-20">F</tspan><tspan x="11.46" y="0">ynn </tspan><tspan class="cls-21" x="55.56" y="0">S</tspan><tspan x="67.83" y="0">emb</tspan><tspan class="cls-22" x="114.66" y="0">r</tspan><tspan x="122.46" y="0">ek</tspan></text><text class="cls-11" transform="translate(118.42 327.43)">fynnnnn021@<tspan class="cls-23" x="114.8" y="0">g</tspan><tspan x="125.72" y="0">mai</tspan><tspan class="cls-24" x="156.33" y="0">l</tspan><tspan x="160.79" y="0">.</tspan><tspan class="cls-23" x="164.88" y="0">c</tspan><tspan class="cls-25" x="173.61" y="0">om</tspan></text><rect class="cls-1" x="502.25" y="288.46" width="94.8" height="21.68"/><text class="cls-14" transform="translate(532.72 304.1)">E<tspan class="cls-15" x="8.43" y="0">dit</tspan></text><path d="M507.62,303.4v2.93h2.93l8.63-8.63-2.93-2.93Zm13.82-8a.78.78,0,0,0,0-1.1l-1.83-1.83a.78.78,0,0,0-1.1,0l-1.43,1.43,2.93,2.93Z"/><rect class="cls-1" x="502.25" y="310.14" width="94.8" height="21.68"/><text class="cls-16" transform="translate(532.72 326.1)"><tspan class="cls-17">D</tspan><tspan x="11.58" y="0">ele</tspan><tspan class="cls-18" x="32.97" y="0">t</tspan><tspan x="38.59" y="0">e</tspan></text><path d="M509.89,326.51a1.59,1.59,0,0,0,1.58,1.58h6.33a1.59,1.59,0,0,0,1.58-1.58V317h-9.5Zm10.29-11.87h-2.77l-.79-.79h-4l-.79.79H509.1v1.58h11.08Z"/><path d="M89.68,291.8l-15,6.67v10c0,9.25,6.4,17.9,15,20,8.6-2.1,15-10.75,15-20v-10Zm-3.33,26.67-6.67-6.67L82,309.45l4.32,4.3,11-11,2.35,2.37Z"/><rect class="cls-1" x="60.37" y="342.18" width="549.63" height="64.09"/><text class="cls-19" transform="translate(118.42 374.23)">La<tspan class="cls-26" x="23.46" y="0">r</tspan><tspan x="31.38" y="0">a</tspan><tspan class="cls-27" x="43.24" y="0"> </tspan><tspan class="cls-28" x="47.57" y="0">W</tspan><tspan x="67.56" y="0">anner</tspan></text><text class="cls-11" transform="translate(118.42 391.52)">laaa<tspan class="cls-29" x="33.21" y="0">r</tspan><tspan x="39.57" y="0">a@</tspan><tspan class="cls-12" x="63.64" y="0">t</tspan><tspan class="cls-25" x="70.06" y="0">om.de</tspan></text><rect class="cls-1" x="502.25" y="352.55" width="94.8" height="21.68"/><text class="cls-14" transform="translate(532.72 368.19)">E<tspan class="cls-15" x="8.43" y="0">dit</tspan></text><path d="M507.62,367.49v2.93h2.93l8.63-8.63-2.93-2.93Zm13.82-8a.78.78,0,0,0,0-1.1l-1.83-1.83a.78.78,0,0,0-1.1,0L517.08,358l2.93,2.93Z"/><rect class="cls-1" x="502.25" y="374.23" width="94.8" height="21.68"/><text class="cls-16" transform="translate(532.72 390.19)"><tspan class="cls-17">D</tspan><tspan x="11.58" y="0">ele</tspan><tspan class="cls-18" x="32.97" y="0">t</tspan><tspan x="38.59" y="0">e</tspan></text><path d="M509.89,390.61a1.59,1.59,0,0,0,1.58,1.58h6.33a1.59,1.59,0,0,0,1.58-1.58v-9.5h-9.5Zm10.29-11.87h-2.77l-.79-.79h-4l-.79.79H509.1v1.58h11.08Z"/><path d="M89.68,374.23a8.13,8.13,0,1,0-8.12-8.12A8.12,8.12,0,0,0,89.68,374.23Zm0,4.06c-5.42,0-16.25,2.72-16.25,8.13v4.06h32.5v-4.06C105.93,381,95.1,378.29,89.68,378.29Z"/><rect class="cls-1" x="60.37" y="406.27" width="549.63" height="64.09"/><text class="cls-19" transform="translate(118.42 438.32)">Simon<tspan class="cls-30" x="65.54" y="0"> </tspan><tspan class="cls-31" x="69.87" y="0">W</tspan><tspan x="90.24" y="0">u</tspan><tspan class="cls-32" x="103.79" y="0">n</tspan><tspan class="cls-33" x="117.34" y="0">t</tspan><tspan x="125.33" y="0">er</tspan></text><text class="cls-11" transform="translate(118.42 455.61)">simoooon@<tspan class="cls-12" x="97.78" y="0">g</tspan><tspan class="cls-34" x="108.7" y="0">mx.us</tspan></text><rect class="cls-1" x="502.25" y="416.64" width="94.8" height="21.68"/><text class="cls-14" transform="translate(532.72 432.28)">E<tspan class="cls-15" x="8.43" y="0">dit</tspan></text><path d="M507.62,431.58v2.93h2.93l8.63-8.63-2.93-2.93Zm13.82-8a.78.78,0,0,0,0-1.1l-1.83-1.83a.78.78,0,0,0-1.1,0l-1.43,1.43L520,425Z"/><rect class="cls-1" x="502.25" y="438.32" width="94.8" height="21.68"/><text class="cls-16" transform="translate(532.72 454.28)"><tspan class="cls-17">D</tspan><tspan x="11.58" y="0">ele</tspan><tspan class="cls-18" x="32.97" y="0">t</tspan><tspan x="38.59" y="0">e</tspan></text><path d="M509.89,454.7a1.59,1.59,0,0,0,1.58,1.58h6.33a1.59,1.59,0,0,0,1.58-1.58v-9.5h-9.5Zm10.29-11.87h-2.77l-.79-.79h-4l-.79.79H509.1v1.58h11.08Z"/><path d="M89.68,438.32a8.13,8.13,0,1,0-8.12-8.12A8.12,8.12,0,0,0,89.68,438.32Zm0,4.06c-5.42,0-16.25,2.72-16.25,8.13v4.06h32.5V450.5C105.93,445.1,95.1,442.38,89.68,442.38Z"/><rect class="cls-1" x="60.37" y="470.36" width="549.63" height="64.09"/><text class="cls-19" transform="translate(118.42 502.41)"><tspan class="cls-28">V</tspan><tspan x="12.91" y="0">ader E</tspan><tspan class="cls-35" x="76.32" y="0">k</tspan><tspan x="87.95" y="0">ul</tspan></text><text class="cls-11" transform="translate(118.42 519.7)"><tspan class="cls-36">va</tspan><tspan class="cls-12" x="18.86" y="0">t</tspan><tspan class="cls-34" x="25.27" y="0">er@</tspan><tspan class="cls-37" x="56.18" y="0">f</tspan><tspan x="61.69" y="0">o</tspan><tspan class="cls-38" x="72.53" y="0">r</tspan><tspan class="cls-12" x="78.79" y="0">c</tspan><tspan class="cls-39" x="87.52" y="0">e</tspan><tspan class="cls-25" x="97.17" y="0">.all</tspan></text><rect class="cls-1" x="502.25" y="480.73" width="94.8" height="21.68"/><text class="cls-14" transform="translate(532.72 496.37)">E<tspan class="cls-15" x="8.43" y="0">dit</tspan></text><path d="M507.62,495.67v2.93h2.93l8.63-8.63L516.25,487Zm13.82-8a.78.78,0,0,0,0-1.1l-1.83-1.83a.78.78,0,0,0-1.1,0l-1.43,1.43,2.93,2.93Z"/><rect class="cls-1" x="502.25" y="502.41" width="94.8" height="21.68"/><text class="cls-16" transform="translate(532.72 518.37)"><tspan class="cls-17">D</tspan><tspan x="11.58" y="0">ele</tspan><tspan class="cls-18" x="32.97" y="0">t</tspan><tspan x="38.59" y="0">e</tspan></text><path d="M509.89,518.79a1.59,1.59,0,0,0,1.58,1.58h6.33a1.59,1.59,0,0,0,1.58-1.58v-9.5h-9.5Zm10.29-11.87h-2.77l-.79-.79h-4l-.79.79H509.1v1.58h11.08Z"/><path d="M89.68,484.07l-15,6.67v10c0,9.25,6.4,17.9,15,20,8.6-2.1,15-10.75,15-20v-10Zm-3.33,26.67-6.67-6.67L82,501.72l4.32,4.3,11-11,2.35,2.37Z"/><rect class="cls-1" x="60.37" y="214" width="549.63" height="320.45"/><rect class="cls-40" width="1280" height="800"/><rect class="cls-41" x="226.83" y="122.5" width="826.33" height="458.06"/><rect class="cls-1" x="266" y="506.52" width="110" height="35.12"/><text class="cls-4" transform="translate(283.21 533.05)"><tspan class="cls-42">C</tspan><tspan class="cls-43" x="16.16" y="0">r</tspan><tspan x="25.03" y="0">e</tspan><tspan class="cls-44" x="39.06" y="0">a</tspan><tspan class="cls-45" x="52.44" y="0">t</tspan><tspan x="61.54" y="0">e</tspan></text><rect class="cls-1" x="399.89" y="506.52" width="110" height="35.12"/><text class="cls-4" transform="translate(423.22 533.05)">Close</text><text class="cls-46" transform="translate(266 180.2)">E<tspan class="cls-47" x="18.6" y="0">n</tspan><tspan class="cls-48" x="39.43" y="0">t</tspan><tspan class="cls-49" x="51.71" y="0">er user details:</tspan></text><rect class="cls-1" x="266" y="221.91" width="429.63" height="40.65"/><text class="cls-50" transform="translate(275.68 252.13)"><tspan class="cls-51">F</tspan><tspan x="12.66" y="0">ull name</tspan></text><rect class="cls-1" x="266" y="293.53" width="429.63" height="40.65"/><text class="cls-50" transform="translate(275.68 323.75)"><tspan class="cls-52">U</tspan><tspan x="17.95" y="0">se</tspan><tspan class="cls-53" x="43.06" y="0">r</tspan><tspan x="52.33" y="0">name</tspan></text><rect class="cls-1" x="266" y="365.14" width="429.63" height="40.65"/><text class="cls-50" transform="translate(275.68 395.37)">Email</text><circle class="cls-1" cx="275.68" cy="457.41" r="9.68"/><text class="cls-4" transform="translate(296 467.8)"><tspan class="cls-54">A</tspan><tspan x="16.8" y="0">dmin</tspan></text><circle class="cls-1" cx="427.68" cy="461.87" r="9.68"/><text class="cls-4" transform="translate(448 472.25)"><tspan class="cls-6">M</tspan><tspan x="22.68" y="0">ode</tspan><tspan class="cls-55" x="67.87" y="0">r</tspan><tspan class="cls-44" x="76.89" y="0">a</tspan><tspan class="cls-52" x="90.27" y="0">t</tspan><tspan x="99.37" y="0">or</tspan></text><circle class="cls-56" cx="275.68" cy="457.41" r="5.56"/></svg>