<?xml version="1.0" standalone="no"?>
<!DOCTYPE svg PUBLIC "-//W3C//DTD SVG 20010904//EN"
 "http://www.w3.org/TR/2001/REC-SVG-20010904/DTD/svg10.dtd">
<svg version="1.0" xmlns="http://www.w3.org/2000/svg"
 width="640.000000pt" height="640.000000pt" viewBox="0 0 640.000000 640.000000"
 preserveAspectRatio="xMidYMid meet">
<metadata>
Created by potrace 1.11, written by Peter Selinger 2001-2013
</metadata>
<g transform="translate(0.000000,640.000000) scale(0.100000,-0.100000)"
fill="#000000" stroke="none">
<path d="M3991 6129 c-179 -34 -349 -164 -429 -329 -76 -157 -86 -302 -31
-467 33 -102 124 -224 212 -288 l27 -20 -30 -90 c-17 -50 -33 -97 -35 -105 -2
-8 -50 -152 -108 -319 l-103 -305 -130 -2 c-139 -2 -153 -4 -259 -35 -256 -76
-462 -272 -555 -527 -112 -306 -44 -646 174 -883 l24 -25 -26 -40 c-15 -21
-83 -120 -152 -218 -69 -98 -145 -209 -170 -245 -25 -37 -57 -82 -71 -101 -14
-19 -128 -182 -254 -363 l-228 -327 -36 6 c-20 4 -46 11 -59 15 -38 14 -203
10 -267 -6 -212 -55 -380 -219 -438 -425 -68 -246 33 -520 246 -664 201 -137
480 -135 681 3 45 32 146 130 146 143 0 3 6 13 13 20 22 22 74 139 88 198 17
76 15 212 -5 289 -19 70 -60 157 -100 210 l-25 34 77 111 c105 152 409 587
424 608 7 10 101 143 208 298 144 207 199 278 210 274 134 -56 227 -73 380
-69 134 3 247 29 349 81 23 12 28 8 124 -119 56 -73 104 -134 107 -137 3 -3
17 -21 30 -40 13 -19 29 -40 36 -47 6 -6 44 -56 85 -110 41 -54 76 -100 80
-103 3 -3 40 -50 82 -106 87 -113 85 -103 28 -196 -76 -121 -94 -332 -42 -476
63 -172 197 -312 356 -371 314 -118 656 33 780 344 48 119 54 273 16 402 -50
170 -203 326 -382 391 -105 37 -257 40 -364 7 l-75 -23 -37 52 c-21 28 -42 56
-48 62 -5 6 -66 84 -135 174 -69 89 -175 226 -235 304 -163 208 -150 179 -104
240 21 28 43 56 47 61 75 102 140 335 136 491 -5 222 -115 469 -269 605 -60
53 -84 72 -127 100 -27 17 -48 34 -48 38 0 11 27 92 130 391 55 162 110 323
121 358 11 35 26 65 32 67 7 2 48 6 92 9 148 10 259 61 370 171 343 337 177
904 -300 1021 -37 9 -189 11 -234 3z"/>
</g>
</svg>
